<?xml version="1.0" encoding="UTF-8"?>
<svg version="1.1" xmlns="http://www.w3.org/2000/svg" width="512" height="512">
<path d="M0 0 C23.66234029 18.59998072 39.34054315 44.63448351 43.28955078 74.69042969 C43.60743422 79.547814 43.67135421 84.38600194 43.66455078 89.25292969 C43.66400696 89.9120636 43.66346313 90.57119751 43.66290283 91.25030518 C43.62136172 102.23144782 42.67449866 112.24706689 39.28955078 122.69042969 C39.07524414 123.37202148 38.8609375 124.05361328 38.64013672 124.75585938 C34.05753137 138.98394847 27.10241502 151.37655371 17.28955078 162.69042969 C16.62568359 163.49867188 15.96181641 164.30691406 15.27783203 165.13964844 C1.12033168 181.80938545 -17.92303446 192.56747983 -38.71044922 198.69042969 C-39.81646484 199.03074219 -40.92248047 199.37105469 -42.06201172 199.72167969 C-60.85696274 204.47543779 -83.27986116 203.66423154 -101.71044922 197.69042969 C-102.39204102 197.47612305 -103.07363281 197.26181641 -103.77587891 197.04101562 C-118.003968 192.45841028 -130.39657324 185.50329393 -141.71044922 175.69042969 C-142.51869141 175.0265625 -143.32693359 174.36269531 -144.15966797 173.67871094 C-160.82940498 159.52121059 -171.58749936 140.47784444 -177.71044922 119.69042969 C-178.05076172 118.58441406 -178.39107422 117.47839844 -178.74169922 116.33886719 C-185.78551602 88.48970262 -180.69576603 57.57861595 -166.57763672 32.84277344 C-150.76554247 6.58926916 -127.15115849 -10.6193679 -98.06591797 -19.48535156 C-63.85293083 -27.88924014 -28.03931841 -21.46772822 0 0 Z " fill="#000101" transform="translate(324.71044921875,166.3095703125)"/>
<path d="M0 0 C3.6654544 2.40606699 7.26746667 4.48220399 11.25 6.3125 C15.82130125 8.56903406 18.33346136 10.2599484 20.875 14.75 C21.61612347 19.26940001 21.46681033 23.21825562 19.8125 27.5 C18.13059884 29.45317554 16.55988513 30.84224329 14.5625 32.4375 C9.37887843 36.6746429 5.00501779 43.05587288 3.875 49.75 C2.79026798 62.50334934 4.86794442 73.89339433 13.1953125 84.09765625 C19.55056062 90.34944684 26.21999927 92.262565 34.97460938 92.19580078 C42.61760932 91.32223306 49.56073526 88.1029464 56.625 85.1875 C58.93680231 84.23687721 61.25025555 83.29391416 63.57476807 82.37477112 C65.0081437 81.80797808 66.43482902 81.22381398 67.85247803 80.61875916 C72.92186365 78.61326192 77.58240087 78.16785717 82.875 79.75 C87.99830881 83.61289152 89.59940813 88.35674051 91.171875 94.390625 C93.36726218 101.75736865 99.29298031 107.1769036 105.875 110.75 C104.77908179 126.45816102 95.15513885 142.2871903 84.875 153.75 C84.07449219 154.64460937 83.27398437 155.53921875 82.44921875 156.4609375 C71.75245152 167.77574017 59.40774451 175.29569065 44.875 180.75 C43.69550781 181.22373047 43.69550781 181.22373047 42.4921875 181.70703125 C21.567857 189.54400375 -4.81895843 187.156801 -25.125 178.75 C-27.5546875 177.08984375 -27.5546875 177.08984375 -29.125 175.75 C-28.55168945 175.7406543 -27.97837891 175.73130859 -27.38769531 175.72167969 C-7.37116616 175.47815189 -7.37116616 175.47815189 10.12890625 166.57421875 C16.88495387 159.51588712 20.88545974 150.08672211 21.3125 140.375 C20.9767171 130.35747695 16.89031507 121.83675412 9.875 114.75 C7.3436451 112.7208578 4.81098483 111.12514503 1.875 109.75 C0.74191406 109.21117187 -0.39117187 108.67234375 -1.55859375 108.1171875 C-7.31543607 106.00232017 -13.20867461 106.54613075 -19.25 106.75 C-34.06152812 107.2464758 -34.06152812 107.2464758 -40.8125 101.4375 C-45.42944762 96.07185817 -46.600204 91.89859656 -46.4296875 84.9453125 C-46.08055879 81.28393701 -45.3881094 77.78501575 -44.625 74.1875 C-42.06233519 62.03629985 -42.43274064 51.60635074 -48.99609375 40.6171875 C-52.30405664 35.92725902 -55.52367078 32.21500096 -60.125 28.75 C-53.39410616 13.77046175 -33.53747771 4.59800458 -19.125 -1.25 C-10.98436276 -4.32915327 -7.39787644 -4.96067517 0 0 Z " fill="#72C2FD" transform="translate(243.125,166.25)"/>
<path d="M0 0 C6.79913369 3.67907234 12.11105928 8.79389294 16 15.4375 C16.50144531 15.27894531 17.00289063 15.12039062 17.51953125 14.95703125 C25.58397279 13.26794349 35.72324099 13.13000703 43.046875 17.11328125 C50.78042192 22.35662606 56.30178781 28.3119482 59.3125 37.25 C61.12910067 40.68135683 61.34418365 40.89236348 64.75 42.0625 C65.45125 42.27519531 66.1525 42.48789063 66.875 42.70703125 C72.94036219 44.7919995 76.94087307 48.88575113 80 54.4375 C82.97701941 61.99869784 83.39047509 70.54820155 81.16015625 78.390625 C78.14945934 84.99996637 73.42169886 90.06875814 67.00679016 93.50527954 C62.61583842 94.86664326 58.40126811 94.73234148 53.82885742 94.72802734 C52.80709915 94.73474457 51.78534088 94.74146179 50.73262024 94.74838257 C47.35685352 94.76737084 43.98128555 94.77128729 40.60546875 94.7734375 C38.25523294 94.7798651 35.90499793 94.78659343 33.55476379 94.79360962 C28.6278803 94.80558465 23.70106694 94.80929023 18.77416992 94.80810547 C12.46927454 94.80790233 6.16483016 94.83519871 -0.13995838 94.86964989 C-4.99478713 94.8919176 -9.84950735 94.89594303 -14.70438194 94.89488602 C-17.02834311 94.89724238 -19.35230725 94.90606783 -21.67621803 94.92155075 C-24.93135525 94.94120626 -28.18552004 94.93537357 -31.44067383 94.92333984 C-32.87251511 94.94019836 -32.87251511 94.94019836 -34.33328247 94.95739746 C-43.21843005 94.87417803 -49.68867993 91.74882007 -56 85.4375 C-62.04651551 76.31870094 -62.75803971 68.21484724 -62 57.4375 C-60.37412418 49.68093317 -56.13462788 44.32603159 -50 39.4375 C-49.2678125 39.1590625 -48.535625 38.880625 -47.78125 38.59375 C-47.1934375 38.2121875 -46.605625 37.830625 -46 37.4375 C-45.44067353 34.66076191 -45.44067353 34.66076191 -45.5 31.4375 C-45.01809883 21.72451413 -41.85928966 13.47809247 -35 6.4375 C-25.07826869 -1.45080228 -12.26294421 -4.99522028 0 0 Z " fill="#000001" transform="translate(70,25.5625)"/>
<path d="M0 0 C0.66 -0.0103125 1.32 -0.020625 2 -0.03125 C4.87290692 0.7318659 6.04419987 2.29133261 8 4.5 C9.21769714 6.831604 9.21769714 6.831604 10.23901367 9.43847656 C10.63009811 10.42180969 11.02118256 11.40514282 11.42411804 12.41827393 C11.83458878 13.48164978 12.24505951 14.54502563 12.66796875 15.640625 C13.32663689 17.31134064 13.32663689 17.31134064 13.99861145 19.01580811 C15.40471868 22.59011085 16.79606754 26.16996275 18.1875 29.75 C19.10390087 32.08239168 20.02121001 34.41442673 20.93945312 36.74609375 C23.2082427 42.51892189 25.45025719 48.30167567 27.68054199 54.08947754 C28.99208138 57.47953202 30.3210739 60.86238552 31.65136719 64.24511719 C32.47538949 66.37144263 33.2986663 68.49805718 34.12109375 70.625 C34.50130173 71.58077942 34.8815097 72.53655884 35.27323914 73.52130127 C39.42412603 84.37332933 40.03787291 94.93076376 36.0625 106 C30.68804132 116.83899209 23.08502192 122.98942802 12 127.5 C2.68362136 130.60545955 -9.6270424 129.47457593 -18.3203125 125.1640625 C-28.56847576 118.80004275 -34.20142449 110.89572654 -38 99.5 C-39.28165935 89.01699377 -38.07331841 80.38304473 -34.13671875 70.58984375 C-33.53758415 69.04855804 -33.53758415 69.04855804 -32.92634583 67.47613525 C-32.0706414 65.27921435 -31.20854546 63.08477388 -30.34057617 60.89266968 C-28.99478166 57.48679367 -27.67205778 54.07277988 -26.35546875 50.65551758 C-24.1154747 44.84984217 -21.84878628 39.05513597 -19.56860352 33.26513672 C-18.63448174 30.88764241 -17.70491645 28.50835362 -16.77954102 26.12744141 C-15.41904663 22.62780937 -14.04510395 19.1337366 -12.66796875 15.640625 C-12.25749802 14.57724915 -11.84702728 13.51387329 -11.42411804 12.41827393 C-11.0330336 11.4349408 -10.64194916 10.45160767 -10.23901367 9.43847656 C-9.90197922 8.57820862 -9.56494476 7.71794067 -9.21769714 6.831604 C-7.1103652 2.79655832 -4.73881766 -0.07404403 0 0 Z " fill="#000000" transform="translate(414,375.5)"/>
<path d="M0 0 C8.80288754 6.34043826 15.4186507 14.72648904 17.58203125 25.4921875 C18.92007691 37.90936834 17.85729499 48.88109459 10.39453125 59.2421875 C3.58210875 67.3274193 -4.72289951 73.55522767 -15.48876953 74.71533203 C-28.40007937 75.61089799 -39.16843729 74.04490094 -49.3515625 65.46484375 C-57.86959925 57.33325857 -62.42046403 48.68416257 -62.88867188 36.85693359 C-63.04371176 24.34263074 -60.22647828 14.71931927 -51.41796875 5.4921875 C-37.63784493 -7.66275112 -16.31305228 -10.17259803 0 0 Z " fill="#010000" transform="translate(446.41796875,53.5078125)"/>
<path d="M0 0 C5.3473573 1.88287229 8.38676863 4.96019665 11 10 C11.78394344 12.56381502 12.48414706 15.11960351 13.09375 17.73046875 C14.23641412 20.59205434 15.30032772 21.54084615 18 23 C21.06343999 23.45687096 22.48981328 23.3005965 25.16796875 21.72265625 C25.83441406 21.17480469 26.50085938 20.62695312 27.1875 20.0625 C31.51686171 16.56093212 34.02832318 15.58938931 39.61328125 15.65234375 C43.54915834 16.22565481 46.28801795 18.1545266 49 21 C52.26333051 25.57956644 52.67643099 29.68287099 53.27734375 35.16015625 C54.1560852 38.61337265 55.1326988 39.90618039 58 42 C60.63943972 42.54646682 60.63943972 42.54646682 63.4375 42.5 C68.16550645 42.75880943 70.69415691 43.3635726 74 47 C75.53597454 50.07194908 75.2265038 52.60244293 75 56 C72.96130547 61.40254051 72.96130547 61.40254051 70.14832115 63.15083408 C67.8863661 64.04491602 66.29770448 64.25815914 63.87686157 64.27415466 C63.06386093 64.28412979 62.25086029 64.29410492 61.41322327 64.30438232 C60.08840187 64.30537933 60.08840187 64.30537933 58.73681641 64.30639648 C57.79977371 64.31472 56.86273102 64.32304352 55.89729309 64.33161926 C52.798674 64.35572095 49.70026539 64.3644914 46.6015625 64.37109375 C44.4468886 64.38005955 42.29221534 64.38918139 40.13754272 64.39845276 C35.62000007 64.41494549 31.10253155 64.42264347 26.58496094 64.42553711 C20.79875185 64.43092284 15.01324023 64.4686101 9.22722816 64.51428127 C4.77651428 64.54403514 0.32596874 64.5512603 -4.12483597 64.55226326 C-6.25788189 64.55646843 -8.39092819 64.56891454 -10.52387619 64.58978081 C-13.50911404 64.61666133 -16.49272994 64.61187942 -19.47802734 64.59936523 C-20.35719315 64.61419952 -21.23635895 64.62903381 -22.14216614 64.64431763 C-26.38512544 64.59371331 -29.14365743 64.32340014 -32.50918579 61.60707092 C-36.20918007 57.73438244 -36.86964237 55.3687551 -37.375 50.0625 C-37.23942561 44.93004097 -34.8113153 41.8113153 -31.25 38.25 C-28.50415632 36.72453129 -25.88100866 36.18222044 -22.8046875 35.625 C-20.60872885 35.06819495 -20.60872885 35.06819495 -19 32 C-18.97657263 30.0406126 -18.97657263 30.0406126 -19.375 27.9375 C-20.48535453 19.5070304 -21.2684785 13.07085272 -16 6 C-11.02540811 1.11424011 -7.05440578 -0.90571937 0 0 Z " fill="#DEE6FB" transform="translate(61,40)"/>
<path d="M0 0 C4.82163929 2.20096061 7.79003418 5.35920159 9.984375 10.1484375 C12.54097081 17.21525423 12.38690227 23.16069633 10.5 30.4375 C8.30845611 40.27323285 6.71443988 51.84653636 11.74609375 61.05078125 C12.15988281 61.69402344 12.57367188 62.33726562 13 63 C13.42410156 63.69480469 13.84820312 64.38960938 14.28515625 65.10546875 C18.7425008 71.72319757 24.97096652 76.54863752 32.75366211 78.62011719 C39.13283087 79.69891151 45.76448175 79.4060952 52.21679688 79.47851562 C53.38404297 79.50494141 54.55128906 79.53136719 55.75390625 79.55859375 C56.80908447 79.57204834 57.8642627 79.58550293 58.95141602 79.59936523 C65.04264154 80.39985383 69.06573339 83.42774421 73 88 C76.22823496 92.89801166 76.8617047 97.2875756 76 103 C74.12802488 108.90148088 71.07065096 112.55195735 66 116 C61.02622734 118.09142726 56.64641418 118.29318824 51.34765625 118.265625 C50.52929794 118.26753845 49.71093964 118.2694519 48.86778259 118.27142334 C47.14402965 118.27277895 45.42026629 118.26912626 43.6965332 118.26074219 C41.07414537 118.25004749 38.45244466 118.26065147 35.83007812 118.2734375 C34.148436 118.27211553 32.46679431 118.26955235 30.78515625 118.265625 C30.00890396 118.26967346 29.23265167 118.27372192 28.43287659 118.27789307 C22.65007891 118.2286868 17.27419363 117.84707983 12.62890625 114.07421875 C-6.59774578 91.86725393 -14.75622687 66.06217729 -13 37 C-11.66238641 23.75586546 -6.87581457 11.32314995 0 0 Z " fill="#37B889" transform="translate(173,208)"/>
<path d="M0 0 C23.9054235 1.28064769 45.85614487 14.92267339 61.57275391 32.32714844 C78.01447796 51.59822151 84.31913767 74.07180221 84 99 C80.9527925 96.48498085 80.23925644 94.06328437 79.1875 90.3125 C76.42282242 81.64146577 71.97318244 75.51691757 64 71 C56.89465954 67.60881478 48.66045139 68.22963202 41.31640625 70.57421875 C39.39187575 71.26051607 37.47389216 71.96541852 35.5625 72.6875 C34.05526367 73.23180664 34.05526367 73.23180664 32.51757812 73.78710938 C27.26984714 75.70186799 22.11456054 77.75631794 17 80 C11.44709729 82.3740671 7.61967865 83.04787146 1.875 80.75 C-3.41174991 75.69310878 -6.20267652 68.43313895 -6.5625 61.125 C-6.26790429 56.8223521 -4.84977217 54.28819865 -2 51 C-0.86574915 50.04851943 0.2809417 49.11173654 1.4375 48.1875 C5.58125682 44.82793802 7.7045494 40.74266652 10 36 C10.33 35.34 10.66 34.68 11 34 C11.96330384 21.44952708 10.98121566 12.80381875 2.6875 2.875 C1.800625 1.92625 0.91375 0.9775 0 0 Z " fill="#38B989" transform="translate(268,161)"/>
<path d="M0 0 C0.66 -0.0103125 1.32 -0.020625 2 -0.03125 C4.8672029 0.73035077 6.04504183 2.30061453 8 4.5 C9.18214417 6.73599243 9.18214417 6.73599243 10.15063477 9.20166016 C10.7062484 10.59428574 10.7062484 10.59428574 11.27308655 12.01504517 C11.65863205 13.01297089 12.04417755 14.01089661 12.44140625 15.0390625 C12.85035629 16.07509613 13.25930634 17.11112976 13.6806488 18.17855835 C14.54356225 20.37052762 15.40144268 22.56448399 16.25463867 24.76025391 C17.55120967 28.09595328 18.8630157 31.42532354 20.17773438 34.75390625 C21.01653356 36.89026849 21.8544524 39.02697664 22.69140625 41.1640625 C23.07897598 42.14984283 23.46654572 43.13562317 23.86585999 44.15127563 C32.76860565 67.1156844 32.76860565 67.1156844 28.0859375 79.2734375 C23.64645126 88.37598124 17.45026008 93.0365539 8 96.5 C-0.38968932 98.77333517 -8.6231722 97.04576926 -16.1875 93 C-22.6718159 88.82348787 -26.5383131 83.05888985 -29.4375 76 C-32.08415392 59.53193118 -24.22320847 44.49850691 -18.22753906 29.51293945 C-16.99193142 26.41728521 -15.77309949 23.31534666 -14.5546875 20.21289062 C-13.76663627 18.23397199 -12.97760892 16.25544172 -12.1875 14.27734375 C-11.82696533 13.35445053 -11.46643066 12.43155731 -11.0949707 11.48069763 C-6.41281816 -0.10020028 -6.41281816 -0.10020028 0 0 Z " fill="#000000" transform="translate(472,335.5)"/>
<path d="M0 0 C0.83563477 0.01095703 1.67126953 0.02191406 2.53222656 0.03320312 C11.48995056 0.34726435 17.38135437 2.88676009 23.5625 9.4375 C28.76762851 15.97759089 31.01195077 22.88441812 30.4453125 31.19921875 C29.33156397 39.34776669 26.09733818 45.09016182 20.3125 50.875 C11.95278219 56.12412513 5.11051707 57.1451624 -4.72583008 57.08007812 C-6.69326172 57.09059204 -6.69326172 57.09059204 -8.70043945 57.10131836 C-12.27252804 57.11943694 -15.84415071 57.11253471 -19.41624665 57.09980202 C-23.16330801 57.089625 -26.91033137 57.09907969 -30.65739441 57.10534668 C-36.94248576 57.11260499 -43.2273885 57.10307865 -49.51245117 57.08398438 C-56.77620447 57.06217154 -64.0395094 57.06930594 -71.30325204 57.09129 C-77.55061709 57.10943951 -83.7978472 57.112006 -90.04523009 57.10153532 C-93.77213408 57.09530394 -97.49882715 57.09445575 -101.22571754 57.10768127 C-105.3744634 57.12137867 -109.52243429 57.10239784 -113.67114258 57.08007812 C-114.90497177 57.08817505 -116.13880096 57.09627197 -117.41001892 57.10461426 C-118.53842194 57.09333496 -119.66682495 57.08205566 -120.829422 57.07043457 C-121.80958188 57.06892647 -122.78974176 57.06741837 -123.79960346 57.06586456 C-127.10010873 56.42077657 -128.29319135 55.14624413 -130.375 52.5625 C-130.90625 50.5625 -130.90625 50.5625 -130.875 48.5625 C-130.8853125 47.9025 -130.895625 47.2425 -130.90625 46.5625 C-130.13283657 43.65082589 -128.67358109 42.4695375 -126.375 40.5625 C-123.90054512 40.06027794 -123.90054512 40.06027794 -121.07498169 40.05697632 C-119.46422256 40.04044258 -119.46422256 40.04044258 -117.82092285 40.02357483 C-116.06129211 40.03583351 -116.06129211 40.03583351 -114.26611328 40.04833984 C-112.40700821 40.03765221 -112.40700821 40.03765221 -110.51034546 40.02674866 C-107.81662024 40.01406479 -105.12402899 40.00860673 -102.43039322 40.01551437 C-98.16884747 40.02630587 -93.90769919 40.00891244 -89.64620972 39.98770142 C-82.90318893 39.95744052 -76.16028589 39.94574693 -69.41720283 39.94212496 C-57.34909703 39.93548047 -45.28107348 39.90640608 -33.21306789 39.8570286 C-28.97971941 39.84055864 -24.74654217 39.83510853 -20.51316476 39.83861899 C-17.25631771 39.83915998 -13.99950674 39.82735788 -10.74267578 39.81787109 C-9.57363708 39.82199509 -8.40459839 39.82611908 -7.20013428 39.83036804 C1.91906497 39.80858232 1.91906497 39.80858232 9.9375 35.8125 C12.11149464 32.91384048 12.55388693 31.18926665 12.625 27.5625 C11.1750457 23.21263709 10.47615325 21.1299355 6.625 18.5625 C2.61834757 17.63211629 -1.16384496 17.29335443 -5.1875 18.1875 C-7.58130151 19.48401877 -7.58130151 19.48401877 -9.125 22.1875 C-11.69616105 24.90150333 -12.29213229 24.97864102 -15.875 25.125 C-18.89941655 24.93067999 -20.27559908 24.62068591 -22.9375 23.0625 C-24.99663387 19.48139762 -25.42385681 16.50106434 -24.375 12.5625 C-18.81213502 3.2854563 -10.46255828 -0.19398536 0 0 Z " fill="#000000" transform="translate(138.375,375.4375)"/>
<path d="M0 0 C3.63525215 2.60789828 4.83397068 4.0702358 5.625 8.5 C4.8323416 12.93888702 3.39060697 14.09899563 0 17 C-2.94067383 18.40625 -2.94067383 18.40625 -6.20703125 19.5 C-7.42181152 19.90992188 -8.6365918 20.31984375 -9.88818359 20.7421875 C-11.19579967 21.16298215 -12.50391785 21.58221931 -13.8125 22 C-14.80917694 22.32532715 -14.80917694 22.32532715 -15.82598877 22.65722656 C-28.34533583 26.73488168 -40.97963384 29.95746512 -54 32 C-55.73334595 32.27384521 -55.73334595 32.27384521 -57.50170898 32.55322266 C-68.77191528 34.15358198 -79.9406371 34.39807483 -91.3125 34.375 C-92.27744385 34.37478851 -93.2423877 34.37457703 -94.23657227 34.37435913 C-110.13841381 34.33968273 -125.40555406 33.34244025 -141 30 C-141.91555664 29.80744629 -142.83111328 29.61489258 -143.77441406 29.41650391 C-152.86344802 27.45055276 -161.75173296 24.9071037 -170.5625 21.9375 C-171.27164551 21.70434082 -171.98079102 21.47118164 -172.71142578 21.23095703 C-176.58290975 19.85517198 -179.06356491 18.70912751 -181 15 C-181.48624383 11.11004934 -181.61706935 8.93794541 -179.4375 5.625 C-176.18176626 3.45451084 -173.91218209 3.23638562 -170 3 C-167.06538749 3.60176755 -164.3127385 4.60533747 -161.5 5.625 C-112.91335428 22.06467029 -59.19424008 20.38439606 -11.45092773 1.82861328 C-7.48886971 0.32803986 -4.23581261 -0.45776073 0 0 Z " fill="#000000" transform="translate(348,462)"/>
<path d="M0 0 C0.85596771 -0.00705963 1.71193542 -0.01411926 2.59384155 -0.02139282 C67.42041542 -0.43460948 67.42041542 -0.43460948 90.64453125 13.203125 C92.91742163 16.79263672 92.8458401 19.27439941 92.17578125 23.36328125 C91.64453125 25.203125 91.64453125 25.203125 90.01953125 27.203125 C83.58437597 29.91266406 77.13320915 27.36646122 70.83203125 25.453125 C21.10748353 11.2250577 -33.71377271 15.4422417 -80.58837891 37.36523438 C-83.92700376 38.37618907 -86.0052427 38.07968859 -89.35546875 37.203125 C-91.73046875 35.640625 -91.73046875 35.640625 -93.35546875 33.203125 C-94.22625527 27.71716994 -94.22625527 27.71716994 -93.35546875 25.203125 C-88.52916708 20.11181841 -82.80051684 18.10213233 -76.29296875 15.765625 C-74.69884155 15.18421753 -74.69884155 15.18421753 -73.07250977 14.59106445 C-49.55032408 6.1491336 -25.11666979 0.13919906 0 0 Z " fill="#000000" transform="translate(244.35546875,15.796875)"/>
<path d="M0 0 C1.90234375 0.3828125 1.90234375 0.3828125 4.33984375 2.0078125 C6.36873833 5.09173226 6.77356154 6.64812838 6.90234375 10.3828125 C5.71232091 14.04645213 4.05104044 17.46863096 2.40234375 20.9453125 C-10.93964249 50.42065201 -17.53931655 80.73820424 -17.41015625 113.0703125 C-17.40933044 113.94689514 -17.40850464 114.82347778 -17.40765381 115.72662354 C-17.37929567 128.8152483 -16.78185495 141.53458549 -14.09765625 154.3828125 C-13.7346309 156.12711709 -13.37401846 157.87192533 -13.015625 159.6171875 C-12.84828857 160.41092773 -12.68095215 161.20466797 -12.50854492 162.02246094 C-11.67891984 166.78824543 -11.24304172 171.37195478 -13.16015625 175.8828125 C-16.09670815 178.15627204 -18.42620453 178.31951161 -22.09765625 178.3828125 C-24.84765625 177.4453125 -24.84765625 177.4453125 -27.09765625 175.3828125 C-29.88150036 169.07228506 -31.11298546 162.79012036 -32.22265625 156.0078125 C-32.39152344 155.03070313 -32.56039062 154.05359375 -32.734375 153.046875 C-34.3106724 143.7132085 -35.24831314 134.4945352 -35.30078125 125.02734375 C-35.30784088 124.17137604 -35.31490051 123.31540833 -35.32217407 122.4335022 C-35.55272524 86.26399628 -35.55272524 86.26399628 -32.09765625 69.3828125 C-31.89366211 68.38088867 -31.68966797 67.37896484 -31.47949219 66.34667969 C-27.61345165 47.96188428 -21.97607549 30.56476097 -14.41015625 13.3828125 C-13.85751099 12.11763794 -13.85751099 12.11763794 -13.29370117 10.8269043 C-10.25866079 4.15118414 -7.91204723 -0.44201381 0 0 Z " fill="#000000" transform="translate(51.09765625,142.6171875)"/>
<path d="M0 0 C0.68677826 -0.00861557 1.37355652 -0.01723114 2.08114624 -0.02610779 C4.34924164 -0.04878684 6.61610214 -0.04202153 8.88427734 -0.03295898 C10.46886561 -0.03819712 12.05345075 -0.0444743 13.63803101 -0.05174255 C16.96196131 -0.06215282 20.28546381 -0.0575817 23.609375 -0.04296875 C27.84617184 -0.02585795 32.08160265 -0.04917546 36.31824684 -0.08445835 C39.59395145 -0.10655303 42.869336 -0.10496068 46.14509201 -0.09669304 C47.70543278 -0.09587857 49.26579827 -0.10264448 50.82606888 -0.11746407 C60.86739223 -0.19815601 69.5065553 0.31888728 77.22769165 7.5231781 C83.72826366 14.31274624 85.65419145 21.14415549 85.57788086 30.46264648 C85.30248839 38.49075424 82.67267568 44.42058205 76.84521484 49.90844727 C75.62300409 50.82186167 74.3719573 51.69795118 73.09521484 52.53344727 C72.19609375 53.15219727 72.19609375 53.15219727 71.27880859 53.78344727 C66.07525314 56.71617519 60.87512501 56.94421383 55.03271484 57.03344727 C54.27692139 57.05197754 53.52112793 57.07050781 52.74243164 57.08959961 C45.99483596 57.01474863 41.02084587 54.88581275 35.78271484 50.67407227 C32.83142528 47.36753488 30.65383659 44.83245604 30.40771484 40.28344727 C31.09521484 36.53344727 31.09521484 36.53344727 32.53271484 34.03344727 C36.32083829 31.81600915 39.81726593 31.59071408 44.09521484 32.53344727 C46.34521484 34.90844727 46.34521484 34.90844727 48.09521484 37.53344727 C51.81656092 39.8076032 54.97897085 39.74048555 59.16162109 39.08422852 C62.10806225 38.24493922 63.95629655 36.67236556 66.09521484 34.53344727 C67.70075428 31.32236839 67.56990541 28.01673999 67.09521484 24.53344727 C65.20185126 21.18365015 63.91588541 19.86763828 60.35256958 18.41659546 C56.95093632 17.49432984 54.12127942 17.28206116 50.60253906 17.27807617 C48.7005928 17.26763779 48.7005928 17.26763779 46.76022339 17.25698853 C45.75553827 17.25801008 45.75553827 17.25801008 44.73055649 17.25905228 C42.62007624 17.26002349 40.51009695 17.24700838 38.39968872 17.23007202 C32.40354172 17.18396223 26.40745129 17.15917796 20.41113281 17.15258789 C16.73409848 17.14757385 13.05759547 17.12334011 9.38074112 17.0872612 C7.98295404 17.07746968 6.58509387 17.07512779 5.18728256 17.08043289 C3.2345377 17.08750144 1.28175132 17.06813472 -0.67089844 17.04760742 C-1.78087189 17.04475739 -2.89084534 17.04190735 -4.03445435 17.03897095 C-7.5517394 16.41950545 -8.727058 15.30646378 -10.90478516 12.53344727 C-11.43603516 10.53344727 -11.43603516 10.53344727 -11.40478516 8.53344727 C-11.42025391 7.54344727 -11.42025391 7.54344727 -11.43603516 6.53344727 C-9.85816634 0.59323527 -5.45958523 0.02729105 0 0 Z " fill="#000000" transform="translate(50.90478515625,447.466552734375)"/>
<path d="M0 0 C3.31231977 2.73681575 4.64913152 5.01758695 5.78125 9.12890625 C6.06403809 10.14960205 6.34682617 11.17029785 6.63818359 12.22192383 C6.92258301 13.32431396 7.20698242 14.4267041 7.5 15.5625 C7.80115723 16.71709717 8.10231445 17.87169434 8.41259766 19.0612793 C16.93516077 52.96127551 17.95635229 87.82117534 12.5625 122.3125 C12.45260742 123.02946045 12.34271484 123.7464209 12.22949219 124.48510742 C11.39472028 129.25481737 10.15643577 133.30565761 6.25 136.375 C2.86406073 137.31553869 0.37798992 136.85985198 -3 136 C-4.99545548 133.92906563 -5.90934644 132.59688312 -6.34350586 129.73828125 C-6.18792535 124.03404527 -5.57385947 118.6103156 -4.5625 113 C0.59560385 81.11629981 -1.84224422 47.84905691 -11.375 17 C-13.04288666 11.46533936 -13.565083 7.61588605 -12 2 C-8.26239548 -1.73760452 -4.90879052 -1.33876105 0 0 Z " fill="#000000" transform="translate(481,176)"/>
<path d="M0 0 C0.83563477 0.01095703 1.67126953 0.02191406 2.53222656 0.03320312 C11.48995056 0.34726435 17.38135437 2.88676009 23.5625 9.4375 C28.76762851 15.97759089 31.01195077 22.88441812 30.4453125 31.19921875 C29.33156397 39.34776669 26.09733818 45.09016182 20.3125 50.875 C12.77264303 55.6093288 6.48414641 57.16793467 -2.39453125 57.09375 C-3.92602058 57.09949036 -3.92602058 57.09949036 -5.4884491 57.10534668 C-7.6305745 57.10805235 -9.7727337 57.10078612 -11.91479492 57.08398438 C-15.19589201 57.06244491 -18.47482709 57.08388935 -21.75585938 57.109375 C-23.84375483 57.10673365 -25.93164893 57.10161268 -28.01953125 57.09375 C-28.99872025 57.10184692 -29.97790924 57.10994385 -30.98677063 57.11828613 C-37.74162121 57.02486001 -37.74162121 57.02486001 -40.98901367 54.65429688 C-42.48483469 52.39673224 -42.91695632 51.24770461 -42.875 48.5625 C-42.8853125 47.9025 -42.895625 47.2425 -42.90625 46.5625 C-42.09596248 43.51200581 -40.89999719 42.4712631 -38.375 40.5625 C-35.40258635 39.96576287 -32.46909456 40.00517693 -29.4453125 40.0234375 C-28.14338455 40.00574814 -28.14338455 40.00574814 -26.81515503 39.98770142 C-24.04325453 39.95243281 -21.27210648 39.94327422 -18.5 39.9375 C-15.73526172 39.92112065 -12.97085824 39.89897723 -10.20626831 39.86587524 C-8.4878702 39.84635862 -6.76931947 39.836898 -5.05081177 39.83895874 C0.57751926 39.78922057 5.30176383 39.32062467 9.9375 35.8125 C12.11149464 32.91384048 12.55388693 31.18926665 12.625 27.5625 C11.1750457 23.21263709 10.47615325 21.1299355 6.625 18.5625 C2.61834757 17.63211629 -1.16384496 17.29335443 -5.1875 18.1875 C-7.58130151 19.48401877 -7.58130151 19.48401877 -9.125 22.1875 C-11.69616105 24.90150333 -12.29213229 24.97864102 -15.875 25.125 C-18.89941655 24.93067999 -20.27559908 24.62068591 -22.9375 23.0625 C-24.99663387 19.48139762 -25.42385681 16.50106434 -24.375 12.5625 C-18.81213502 3.2854563 -10.46255828 -0.19398536 0 0 Z " fill="#000000" transform="translate(66.375,343.4375)"/>
<path d="M0 0 C0.66 0 1.32 0 2 0 C4.7607365 6.71125068 7.50033082 13.430733 10.21417999 20.1610918 C11.47536324 23.28698427 12.74330437 26.40974278 14.02783203 29.52612305 C15.50542772 33.12103151 16.95797696 36.72522621 18.40625 40.33203125 C19.09527405 41.98583549 19.09527405 41.98583549 19.79821777 43.67304993 C22.92778369 51.56529372 24.35185614 58.69447414 22.22265625 67.05078125 C18.55348987 74.20380257 13.67306077 78.44231308 6 81 C-1.36165925 81.96767235 -6.64036737 80.99965078 -12.83203125 76.85546875 C-17.22519039 73.09555777 -20.63686673 67.88339098 -21.18582153 62.01280212 C-21.26824666 56.55607046 -20.4622668 52.25814989 -18.4921875 47.19140625 C-18.22550262 46.47223526 -17.95881775 45.75306427 -17.68405151 45.01210022 C-16.80731254 42.66746414 -15.90660722 40.33323807 -15 38 C-14.68905396 37.19294617 -14.37810791 36.38589233 -14.05773926 35.55438232 C-11.78496978 29.66678992 -9.46049742 23.80043103 -7.125 17.9375 C-6.42939492 16.18436085 -5.734081 14.43110615 -5.0390625 12.67773438 C-3.36271193 8.45048985 -1.68248725 4.2248056 0 0 Z " fill="#71C0FC" transform="translate(413,407)"/>
<path d="M0 0 C5.82383375 3.56638679 10.32338571 8.95288688 12.3984375 15.46875 C13.5673085 23.47859234 12.00330437 29.84053253 7.3984375 36.46875 C2.68730319 41.88884142 -2.95054226 44.8679005 -10.05078125 45.78515625 C-16.07732667 46.07125565 -20.71842458 45.08551398 -25.6015625 41.46875 C-31.86591077 35.6698252 -35.65618034 29.71788911 -36.0390625 21.03125 C-35.80212912 14.36066397 -34.11051546 10.10408679 -29.5078125 5.26953125 C-20.50157066 -3.09126326 -11.4863017 -5.07281463 0 0 Z " fill="#E36B65" transform="translate(435.6015625,66.53125)"/>
<path d="M0 0 C0.68835938 0.61488281 0.68835938 0.61488281 1.390625 1.2421875 C2.00421875 1.78101563 2.6178125 2.31984375 3.25 2.875 C4.15492188 3.67550781 4.15492188 3.67550781 5.078125 4.4921875 C6.97418746 5.9797487 8.81290005 7.00322436 11 8 C9.90408179 23.70816102 0.28013885 39.5371903 -10 51 C-10.80050781 51.89460938 -11.60101563 52.78921875 -12.42578125 53.7109375 C-23.12254848 65.02574017 -35.46725549 72.54569065 -50 78 C-50.78632813 78.31582031 -51.57265625 78.63164062 -52.3828125 78.95703125 C-73.307143 86.79400375 -99.69395843 84.406801 -120 76 C-122.4296875 74.33984375 -122.4296875 74.33984375 -124 73 C-123.42145264 72.98541748 -122.84290527 72.97083496 -122.24682617 72.95581055 C-106.86131184 72.65939997 -106.86131184 72.65939997 -92 69 C-92 69.66 -92 70.32 -92 71 C-64.81222091 70.53999674 -41.97647263 64.60901243 -22 45 C-21.31164062 44.33613281 -20.62328125 43.67226563 -19.9140625 42.98828125 C-9.60890759 32.29617389 0 15.1758833 0 0 Z " fill="#57B6FB" transform="translate(338,269)"/>
<path d="M0 0 C7.6529387 4.36082382 11.00563675 10.85086988 13.625 19 C14.29144531 18.6390625 14.95789063 18.278125 15.64453125 17.90625 C22.3778869 14.51602897 28.0792415 12.59462951 35.625 14 C39.15570948 15.37252781 42.38982635 17.03503553 45.625 19 C45.32599746 22.2890279 45.00584499 24.47661172 43.0425415 27.17474365 C39.81023421 29.61515239 37.08345524 29.53442877 33.19433594 29.45410156 C32.08155273 29.45497772 32.08155273 29.45497772 30.94628906 29.45587158 C28.50017098 29.45309025 26.05527953 29.42199786 23.609375 29.390625 C21.91115993 29.38316274 20.21293624 29.37746973 18.51470947 29.37347412 C14.0494399 29.35821651 9.58469247 29.31893389 5.11962891 29.2746582 C0.56159529 29.23370807 -3.99652287 29.21546367 -8.5546875 29.1953125 C-17.49502081 29.15243953 -26.43496695 29.08418685 -35.375 29 C-35.39393591 27.39490237 -35.40746674 25.78974033 -35.41870117 24.18457031 C-35.4268132 23.29070618 -35.43492523 22.39684204 -35.44328308 21.47589111 C-35.24809624 14.39856901 -31.38887627 7.79103732 -26.375 3 C-18.3428442 -3.23070522 -9.31253505 -4.11712076 0 0 Z " fill="#FEFEFE" transform="translate(90.375,74)"/>
<path d="M0 0 C0.66 0 1.32 0 2 0 C4.7607365 6.71125068 7.50033082 13.430733 10.21417999 20.1610918 C11.47536324 23.28698427 12.74330437 26.40974278 14.02783203 29.52612305 C15.50542772 33.12103151 16.95797696 36.72522621 18.40625 40.33203125 C18.86559937 41.43456741 19.32494873 42.53710358 19.79821777 43.67304993 C22.92778369 51.56529372 24.35185614 58.69447414 22.22265625 67.05078125 C19.04173885 73.25196365 15.39255262 77.07053381 9 80 C6.55805632 80.66517296 4.54688713 80.89162182 2 81 C2.40992188 80.35933594 2.81984375 79.71867187 3.2421875 79.05859375 C8.79903032 70.1383987 11.23733951 62.56727857 10 52 C8.42217833 46.10010519 5.92562327 40.49287514 3.5625 34.875 C2.94276877 33.35754243 2.32491592 31.83931632 1.70898438 30.3203125 C-0.97635417 23.58437307 -0.97635417 23.58437307 -4 17 C-4.66 17.33 -5.32 17.66 -6 18 C-5.31583566 13.82423832 -3.98634991 10.11919593 -2.4375 6.1875 C-1.75494141 4.44533203 -1.75494141 4.44533203 -1.05859375 2.66796875 C-0.70925781 1.78753906 -0.35992187 0.90710938 0 0 Z " fill="#639EF8" transform="translate(413,407)"/>
<path d="M0 0 C0.66 0 1.32 0 2 0 C3.72895696 4.24230553 5.43697974 8.49225848 7.12695312 12.75024414 C7.70344087 14.19452649 8.28537339 15.63664885 8.87304688 17.07641602 C15.0111477 32.13459702 15.0111477 32.13459702 14 40 C11.63292134 44.91624028 9.13959507 47.18602527 4 49 C-0.28359614 49.53544952 -2.40228336 49.31035287 -6.25 47.3125 C-9.61963993 44.47893915 -11.57735712 42.5281378 -12.32080078 38.08105469 C-12.79252602 29.42720896 -9.30839688 22.15565373 -6 14.375 C-5.42026758 12.9759254 -4.84212901 11.57618924 -4.265625 10.17578125 C-2.86204276 6.77603084 -1.43710733 3.38573824 0 0 Z " fill="#629DF6" transform="translate(471,367)"/>
<path d="M0 0 C0.96164063 0.61746094 1.92328125 1.23492187 2.9140625 1.87109375 C5.375 3.5625 5.375 3.5625 7.375 5.5625 C6.56047363 5.70498169 6.56047363 5.70498169 5.72949219 5.8503418 C-15.30946301 9.60093844 -32.0513868 16.33625364 -47.625 31.5625 C-48.47964844 32.39394531 -48.47964844 32.39394531 -49.3515625 33.2421875 C-50.45670524 34.33498228 -51.54417529 35.4456478 -52.625 36.5625 C-53.82942708 35.06510417 -55.03385417 33.56770833 -56.23828125 32.0703125 C-57.74770545 30.30957893 -57.74770545 30.30957893 -60.625 28.5625 C-53.89410616 13.58296175 -34.03747771 4.41050458 -19.625 -1.4375 C-11.20101198 -4.62382921 -7.71669639 -5.00233283 0 0 Z " fill="#57B6FA" transform="translate(243.625,166.4375)"/>
<path d="M0 0 C3 1 3 1 4.60546875 3.9921875 C5.15109487 5.27885784 5.67744902 6.5738173 6.1875 7.875 C6.45288574 8.55175781 6.71827148 9.22851562 6.99169922 9.92578125 C9.35539219 16.33394822 10.77013855 22.68055935 8.0859375 29.23046875 C7 31.1875 7 31.1875 5 34 C-1.35227273 33.51136364 -1.35227273 33.51136364 -4.375 31.125 C-7.25152746 27.36338717 -7.44325424 23.69205722 -7.4296875 19.11328125 C-6.64833136 13.45200082 -4.11608285 4.11608285 0 0 Z " fill="#71BFFB" transform="translate(466,381)"/>
<path d="M0 0 C6.22663093 1.26643341 10.23349314 5.56898971 13.6875 10.75 C14.34503425 17.65410959 14.34503425 17.65410959 12.1875 21.25 C9.3843928 22.93186432 7.13221331 23.49119498 3.8515625 23.34375 C-1.49924112 21.87565948 -5.33975332 17.20912001 -8.3125 12.75 C-8.87801375 8.38746537 -8.80572651 6.45247412 -6.25 2.8125 C-3.3125 0.75 -3.3125 0.75 0 0 Z " fill="#000000" transform="translate(469.3125,124.25)"/>
<path d="M0 0 C2.5 1.5 2.5 1.5 4 4 C4.79586642 8.34108958 4.97712953 10.51871322 2.53125 14.2265625 C-3.90692719 21.72867575 -3.90692719 21.72867575 -9.375 22.4375 C-13 22 -13 22 -15.9375 19.9375 C-18 17 -18 17 -18.75 13.6875 C-16.92859773 4.73227216 -9.12558871 -1.43218495 0 0 Z " fill="#000000" transform="translate(479,29)"/>
<path d="M0 0 C5.35080362 1.46809052 9.19131582 6.13462999 12.1640625 10.59375 C12.72957625 14.95628463 12.65728901 16.89127588 10.1015625 20.53125 C7.1640625 22.59375 7.1640625 22.59375 3.8515625 23.34375 C-2.37506843 22.07731659 -6.38193064 17.77476029 -9.8359375 12.59375 C-10.49347175 5.68964041 -10.49347175 5.68964041 -8.3359375 2.09375 C-5.5328303 0.41188568 -3.28065081 -0.14744498 0 0 Z " fill="#000000" transform="translate(374.8359375,28.40625)"/>
<path d="M0 0 C0.66 -0.0103125 1.32 -0.020625 2 -0.03125 C5.04782397 0.77832824 6.15682414 1.94542293 8 4.5 C8.40100915 7.33065284 8.56122899 9.68346659 8.5 12.5 C8.51546875 13.2115625 8.5309375 13.923125 8.546875 14.65625 C8.52115187 18.10314984 8.25431936 20.14752229 6.21875 22.96875 C3.88020812 24.58267327 2.80290722 25.04379543 0 25 C-0.66 25.0103125 -1.32 25.020625 -2 25.03125 C-5.04782397 24.22167176 -6.15682414 23.05457707 -8 20.5 C-8.40100915 17.66934716 -8.56122899 15.31653341 -8.5 12.5 C-8.51546875 11.7884375 -8.5309375 11.076875 -8.546875 10.34375 C-8.52115187 6.89685016 -8.25431936 4.85247771 -6.21875 2.03125 C-3.88020812 0.41732673 -2.80290722 -0.04379543 0 0 Z " fill="#000000" transform="translate(424,143.5)"/>
<path d="M0 0 C0.7115625 -0.01546875 1.423125 -0.0309375 2.15625 -0.046875 C5.60314984 -0.02115187 7.64752229 0.24568064 10.46875 2.28125 C12.08267327 4.61979188 12.54379543 5.69709278 12.5 8.5 C12.5103125 9.16 12.520625 9.82 12.53125 10.5 C11.72167176 13.54782397 10.55457707 14.65682414 8 16.5 C5.16934716 16.90100915 2.81653341 17.06122899 0 17 C-0.7115625 17.01546875 -1.423125 17.0309375 -2.15625 17.046875 C-5.60314984 17.02115187 -7.64752229 16.75431936 -10.46875 14.71875 C-12.08267327 12.38020812 -12.54379543 11.30290722 -12.5 8.5 C-12.51546875 7.51 -12.51546875 7.51 -12.53125 6.5 C-10.82633794 0.08150756 -5.75061521 -0.12501337 0 0 Z " fill="#000000" transform="translate(492,79.5)"/>
<path d="M0 0 C0.7115625 -0.01546875 1.423125 -0.0309375 2.15625 -0.046875 C5.60314984 -0.02115187 7.64752229 0.24568064 10.46875 2.28125 C12.08267327 4.61979188 12.54379543 5.69709278 12.5 8.5 C12.5103125 9.16 12.520625 9.82 12.53125 10.5 C11.72167176 13.54782397 10.55457707 14.65682414 8 16.5 C5.16934716 16.90100915 2.81653341 17.06122899 0 17 C-0.7115625 17.01546875 -1.423125 17.0309375 -2.15625 17.046875 C-5.60314984 17.02115187 -7.64752229 16.75431936 -10.46875 14.71875 C-12.08267327 12.38020812 -12.54379543 11.30290722 -12.5 8.5 C-12.51546875 7.51 -12.51546875 7.51 -12.53125 6.5 C-10.82633794 0.08150756 -5.75061521 -0.12501337 0 0 Z " fill="#000000" transform="translate(356,79.5)"/>
<path d="M0 0 C0.66 -0.0103125 1.32 -0.020625 2 -0.03125 C5.04782397 0.77832824 6.15682414 1.94542293 8 4.5 C8.40100915 7.33065284 8.56122899 9.68346659 8.5 12.5 C8.51546875 13.2115625 8.5309375 13.923125 8.546875 14.65625 C8.52115187 18.10314984 8.25431936 20.14752229 6.21875 22.96875 C3.88020812 24.58267327 2.80290722 25.04379543 0 25 C-0.66 25.0103125 -1.32 25.020625 -2 25.03125 C-5.04782397 24.22167176 -6.15682414 23.05457707 -8 20.5 C-8.40100915 17.66934716 -8.56122899 15.31653341 -8.5 12.5 C-8.51546875 11.7884375 -8.5309375 11.076875 -8.546875 10.34375 C-8.52115187 6.89685016 -8.25431936 4.85247771 -6.21875 2.03125 C-3.88020812 0.41732673 -2.80290722 -0.04379543 0 0 Z " fill="#000000" transform="translate(424,7.5)"/>
<path d="M0 0 C3.57632467 2.51103647 4.78325846 4.04272488 5.75 8.3125 C4.6943669 13.50269606 1.82412943 16.45273062 -2 20 C-5.20841035 21.60420518 -8.5193987 21.47462745 -12 21 C-14.5 19.5 -14.5 19.5 -16 17 C-16.80232322 12.62369151 -16.97570151 10.4673537 -14.49609375 6.73828125 C-9.8875008 1.37922849 -7.36244067 -0.74872278 0 0 Z " fill="#000000" transform="translate(374,133)"/>
</svg>
